<svg id="eGJdqNztFig1" xmlns="http://www.w3.org/2000/svg" xmlns:xlink="http://www.w3.org/1999/xlink" viewBox="0 0 300 300" shape-rendering="geometricPrecision" text-rendering="geometricPrecision"><text dx="0" dy="0" font-family="&quot;Concert One&quot;" font-size="15" font-weight="400" transform="matrix(10.688057 0 0 10.688054 100.09293 206.246803)" stroke-width="0"><tspan y="0" font-weight="400" stroke-width="0"></tspan></text><polygon points="0,-137.341663 2.840703,-74.110075 10.513402,-136.938675 8.505439,-73.675167 20.965107,-135.732077 14.120261,-72.807905 31.29378,-133.728949 19.65222,-71.513376 41.438809,-130.941046 25.068852,-69.799179 51.340658,-127.384729 30.33837,-67.675373 60.94122,-123.080868 35.42985,-65.15442 70.184155,-118.054719 40.313414,-62.251115 79.015221,-112.335778 44.960403,-58.982496 87.382595,-105.957607 49.343546,-55.367745 95.237173,-98.957634 53.437122,-51.428073 102.532861,-91.376938 57.217108,-47.186601 109.226845,-83.260006 60.66132,-42.66822 115.279843,-74.654471 63.749548,-37.899444 120.656333,-65.610834 66.463669,-32.908259 125.324764,-56.182167 68.787754,-27.723955 129.257739,-46.4238 70.708165,-22.376957 132.432178,-36.393 72.213632,-16.898641 134.829453,-26.148632 73.295321,-11.321158 136.435495,-15.750812 73.946885,-5.677237 137.240879,-5.260561 74.164498,0 137.240879,5.260561 73.946885,5.677237 136.435495,15.750812 73.295321,11.321158 134.829453,26.148632 72.213632,16.898641 132.432178,36.393 70.708165,22.376957 129.257739,46.4238 68.787754,27.723955 125.324764,56.182167 66.463669,32.908259 120.656333,65.610834 63.749548,37.899444 115.279843,74.654471 60.66132,42.66822 109.226845,83.260006 57.217108,47.186601 102.532861,91.376938 53.437122,51.428073 95.237173,98.957634 49.343546,55.367745 87.382595,105.957607 44.960403,58.982496 79.015221,112.335778 40.313414,62.251115 70.184155,118.054719 35.42985,65.15442 60.94122,123.080868 30.33837,67.675373 51.340658,127.384729 25.068852,69.799179 41.438809,130.941046 19.65222,71.513376 31.29378,133.728949 14.120261,72.807905 20.965107,135.732077 8.505439,73.675167 10.513402,136.938675 2.840703,74.110075 0,137.341663 -2.840703,74.110075 -10.513402,136.938675 -8.505439,73.675167 -20.965107,135.732077 -14.120261,72.807905 -31.29378,133.728949 -19.65222,71.513376 -41.438809,130.941046 -25.068852,69.799179 -51.340658,127.384729 -30.33837,67.675373 -60.94122,123.080868 -35.42985,65.15442 -70.184155,118.054719 -40.313414,62.251115 -79.015221,112.335778 -44.960403,58.982496 -87.382595,105.957607 -49.343546,55.367745 -95.237173,98.957634 -53.437122,51.428073 -102.532861,91.376938 -57.217108,47.186601 -109.226845,83.260006 -60.66132,42.66822 -115.279843,74.654471 -63.749548,37.899444 -120.656333,65.610834 -66.463669,32.908259 -125.324764,56.182167 -68.787754,27.723955 -129.257739,46.4238 -70.708165,22.376957 -132.432178,36.393 -72.213632,16.898641 -134.829453,26.148632 -73.295321,11.321158 -136.435495,15.750812 -73.946885,5.677237 -137.240879,5.260561 -74.164498,0 -137.240879,-5.260561 -73.946885,-5.677237 -136.435495,-15.750812 -73.295321,-11.321158 -134.829453,-26.148632 -72.213632,-16.898641 -132.432178,-36.393 -70.708165,-22.376957 -129.257739,-46.4238 -68.787754,-27.723955 -125.324764,-56.182167 -66.463669,-32.908259 -120.656333,-65.610834 -63.749548,-37.899444 -115.279843,-74.654471 -60.66132,-42.66822 -109.226845,-83.260006 -57.217108,-47.186601 -102.532861,-91.376938 -53.437122,-51.428073 -95.237173,-98.957634 -49.343546,-55.367745 -87.382595,-105.957607 -44.960403,-58.982496 -79.015221,-112.335778 -40.313414,-62.251115 -70.184155,-118.054719 -35.42985,-65.15442 -60.94122,-123.080868 -30.33837,-67.675373 -51.340658,-127.384729 -25.068852,-69.799179 -41.438809,-130.941046 -19.65222,-71.513376 -31.29378,-133.728949 -14.120261,-72.807905 -20.965107,-135.732077 -8.505439,-73.675167 -10.513402,-136.938675 -2.840703,-74.110075 0,-137.341663" transform="translate(141.818646 150)" fill="#150122" stroke="#D4B3FF"/></svg>
